# xmcd
#
# Track frame offsets:
#	150
#	14932
#	27657
#	40865
#	54930
#	67785
#	80132
#	92707
#	104982
#	120782
#	135292
#	149872
#	166285
#	182045
#	198695
#	216027
#	226972
#
# Disc length: 3271 seconds
#
# Revision: 2
# Processed by: cddbd v1.4PL0 Copyright (c) Steve Scherf et al.
# Submitted via: audiograbber 1.80.04
#
DISCID=f80cc511
DTITLE=Various Artist - Reggae's Greatest Hits Vol. 5
DYEAR=1900
DGENRE=Reggae
TTITLE0=keith and tex - Don't Look Back
TTITLE1=derrick harriott - Do I Worry
TTITLE2=scotty - I Worry
TTITLE3=bobby ellis and the crystalites - Alfred Hitchcock
TTITLE4=derrick harriott - Solomon
TTITLE5=keith and tex - Lonely Man
TTITLE6=ethiopians - Throne Of Justice
TTITLE7=ethiopians - No Baptism
TTITLE8=kingstonians - Medley
TTITLE9=rudy mills - Long Story
TTITLE10=keith and tex - Stop That Train
TTITLE11=ike benett and the crystalites - Easy Ride
TTITLE12=big youth - Cool Breeze
TTITLE13=kingstonians - Winey, Winey
TTITLE14=crystalites - The Bad
TTITLE15=lloyd and glen - That Girl
TTITLE16=keith and tex - Keith and Tex Medley
EXTD=
EXTT0=Keith and Tex
EXTT1=Derrick Harriott
EXTT2=Scotty
EXTT3=Bobby Ellis And The Crystalites
EXTT4=Derrick Harriott
EXTT5=Keith and Tex
EXTT6=Ethiopians
EXTT7=Ethiopians
EXTT8=Kingstonians
EXTT9=Rudy Mills
EXTT10=Keith and Tex
EXTT11=Ike Bennett and The Crystalites
EXTT12=Big Youth
EXTT13=Kingstonians
EXTT14=Crystalites
EXTT15=Lloyd And Glen
EXTT16=Keith and Tex
PLAYORDER=
